# xmcd CD database file
#
# Track frame offsets:
#	150
#	15502
#	29440
#	48792
#	68960
#	84365
#	97225
#	108780
#	119240
#	138525
#	156300
#	168057
#
# Disc length: 2519 seconds
#
# Revision: 0
# Processed by: cddbd v1.5.2PL0 Copyright (c) Steve Scherf et al.
# Submitted via: CDex 1.51
#
DISCID=9b09d50c
DTITLE=Original Vogtlandecho - Rück doch näher
DYEAR=1900
DGENRE=Country
TTITLE0=Original Vogtlandecho - Mit Tuba und Akkordeon
TTITLE1=Original Vogtlandecho - Samona - Maria
TTITLE2=Original Vogtlandecho - Rück doch näher
TTITLE3=Original Vogtlandecho - Sag' mir deine Fehler
TTITLE4=Original Vogtlandecho - In der Ferne
TTITLE5=Original Vogtlandecho - Mein Vogtland
TTITLE6=Original Vogtlandecho - Ja, unsere Oma
TTITLE7=Original Vogtlandecho - Komm, wir fliegen auf
TTITLE8=Original Vogtlandecho - Wu is denn senner
TTITLE9=Original Vogtlandecho - Die Heimatblumen
TTITLE10=Original Vogtlandecho - Bei einem Glasl Wein
TTITLE11=Original Vogtlandecho - Schließe deine Augen
EXTD=
EXTT0=
EXTT1=
EXTT2=
EXTT3=
EXTT4=
EXTT5=
EXTT6=
EXTT7=
EXTT8=
EXTT9=
EXTT10=
EXTT11=
PLAYORDER=
